<svg xmlns="http://www.w3.org/2000/svg" xmlns:xlink="http://www.w3.org/1999/xlink" version="1.1" id="Layer_1" x="0px" y="0px" style="enable-background:new 0 0 4500 4500;" xml:space="preserve" viewBox="321.9 1547.5 3997.03 1774.5">
<style type="text/css">
	.st0{fill:#2A376B;}
	.st1{fill:#EED74D;}
	.st2{fill:#E0B900;}
</style>
<path class="st0" d="M1507.5,2140.3c0-327.4-265.4-592.8-592.8-592.8s-592.8,265.4-592.8,592.8c0,298.5,220.6,545.4,507.7,586.7  c-5.1,42.6-8,89.7-8,139.3c0,190.1,41.7,239.5,93.1,239.5s93.1-49.4,93.1-239.5c0-49.6-2.9-96.7-8-139.3  C1286.9,2685.7,1507.5,2438.7,1507.5,2140.3z M914.7,3018.7c-21.3,0-38.5-23.8-38.5-53.1c0-29.3,17.2-53.1,38.5-53.1  c21.3,0,38.5,23.8,38.5,53.1C953.2,2995,935.9,3018.7,914.7,3018.7z"/>
<ellipse class="st1" cx="903.5" cy="2136.9" rx="95.9" ry="95.6"/>
<path class="st2" d="M442.3,2136.9c0,189.3,115.2,352.2,279.3,423V2469v-33.9v-207V2137c0.2-62.9,33.4-125.2,82.6-155  c55.3-33.5,128.2-36,185.6-6.5c52.4,26.9,90.3,83.3,96.8,143.5c6.5,60.6-21.4,124.3-70.9,162.4c-50.2,38.6-121.1,47.8-180.7,23.6  c-8-3.3-15.9-7.2-23.5-11.6l-1.2,2v118.8v59.4v114.3v135.5c33.6,5.9,68.2,9,103.5,9c2.6,0,5.2-0.1,7.9-0.1v-135.1  c7.8-0.3,15.6-0.8,23.3-1.5v135.8c38.2-2,75.4-7.6,111.4-16.4V2572c166.4-57.7,289.8-207.5,308.3-387.9h-112.3  c-22.5,165.1-161,294-330.7,302.1v-57.5c58.4-3.4,115.7-23.6,162.1-59.3c80.7-62.1,124.3-162.5,113.6-262  c-10.4-97.9-70.4-186.2-156.5-230.4c-91.2-46.9-206.8-42.9-294.6,10.3c-82.4,49.9-135.8,147.8-136.1,249.7v190  c-35.7-54.7-56.5-120-56.5-190c0-192.8,157.5-349.7,351-349.7c177.5,0,324.5,131.9,347.7,302.5h112.3  c-18.5-180.4-142-330.3-308.3-388v-137.2c-36-8.8-73.2-14.4-111.4-16.4v129.9c-13.3-1.1-26.7-1.8-40.2-1.8c-1.7,0-3.4,0-5.1,0.1  v-128.8c-38.1,0.9-75.4,5.4-111.4,13.1V1691C589.5,1742.5,442.3,1922.9,442.3,2136.9z"/>
<g>
	<path class="st0" d="M2270.5,1973c20.2,0,36.7,1.7,49.6,5c30.3,7.3,59.7,19.9,88.3,37.8c37,23.5,67.6,55.5,91.7,95.9   c37,63.9,48.5,140.2,34.5,228.7c-8.4,53.8-25.5,104.8-51.3,153.1c-30.3,55.5-69,100.9-116.1,136.2c-18.5,13.5-38.7,26.4-60.5,38.7   c-72.9,40.4-138.8,61.7-197.6,63.9c-5.6,0-12.1-0.3-19.3-0.8c-21.9-1.1-39.3-8.4-52.1-21.9c-7.9-8.4-12.1-19.1-12.6-32   c0.5-12.3,3.1-23.8,7.6-34.5c5-9,10.4-15.1,16-18.5c6.7-3.9,12.9-1.7,18.5,6.7c2.8,4.5,3.1,10.4,0.8,17.7   c-3.9,12.3-0.8,20.5,9.3,24.4c9.5,2.8,23.3,2.8,41.2,0c33.6-5,69.8-15.1,108.5-30.3c30.8-12.3,62.5-29.4,95-51.3   c21.9-15.1,41.5-31.1,58.9-47.9c32.5-33.1,60.5-79.1,84.1-137.9c16.3-41.5,23.8-85.2,22.7-131.2c-1.1-40.4-9.5-76.5-25.2-108.5   c-11.2-23-27.5-45.4-48.8-67.3c-1.7-1.7-3.7-3.6-5.9-5.9c-12.3-11.8-31.7-24.1-58-37c-20.2-10.1-35.9-16.5-47.1-19.3   c-11.2-2.8-29.4-4.2-54.7-4.2c-28.6,0-54.4,2.8-77.4,8.4c-23.5,6.2-49.6,14.9-78.2,26.1c-82.4,32.5-148.6,69.8-198.5,111.9   c-3.4,2.8-7,6.2-10.9,10.1c-23.5,23.5-37.6,44.3-42,62.2c-1.1,3.4-1.7,13.2-1.7,29.4v1.7c-0.6,18.5-2.2,30-5,34.5   c-3.4,3.9-8.7,6.2-16,6.7c-3.4,0-6.7-0.8-10.1-2.5c-1.1-0.5-2.8-1.7-5-3.4c-12.9-12.3-17.9-29.4-15.1-51.3   c3.9-26.3,12.6-50.2,26.1-71.5c18.5-27.5,46.5-55.5,84.1-84.1c29.7-21.9,70.1-45.7,121.1-71.5c46.5-23.5,90-41.2,130.4-53   c30.8-9,64.8-13.5,101.8-13.5C2256.8,1973,2263.2,1973,2270.5,1973z M2093.9,2232.1c10.6,6.7,17.4,15.1,20.2,25.2   c0.6,0.6,0.8,1.7,0.8,3.4c1.7,15.1,1.4,27.2-0.8,36.2c-2.8,13.5-8.1,24.1-16,32c-7.9,6.7-15.7,10.1-23.5,10.1   c-11.8-0.5-17.9-8.7-18.5-24.4v-5.9l-3.4,6.7c-16.3,34.8-30.3,114.1-42,238c-2.8,26.4-4.2,55.8-4.2,88.3c-1.1,58.9,0.6,106,5,141.3   c3.4,26.4,9,59.2,16.8,98.4c11.2,56.6,20.7,96.7,28.6,120.3c3.4,9.5,3.9,17.1,1.7,22.7c-2.2,3.4-5.6,5.6-10.1,6.7   c-2.8,0.6-5.6,0-8.4-1.7c-4.5-2.2-9.3-7.3-14.3-15.1c-20.2-32-39-83.3-56.3-153.9c-14-58.3-22.7-118-26.1-179.1c0-0.6,0-1.7,0-3.4   c-1.7-44.3-1.4-83.5,0.8-117.7c4.5-67.3,12.6-130.4,24.4-189.2c7.3-38.1,16.8-68.4,28.6-90.8c14-25.8,31.7-43.2,53-52.1   c4.5-1.1,10.6-2,18.5-2.5C2078.2,2225.3,2086.6,2227.6,2093.9,2232.1z"/>
	<path class="st0" d="M2813,2349c18.5-28.6,40.9-39.8,67.3-33.6c13.5,3.4,20.7,9,21.9,16.8c5.6,30.3,9.3,68.7,10.9,115.2   c3.4,101.5,7,170.4,10.9,206.9c3.9,42.6,4.8,65,2.5,67.3c-2.2,0.6-7-7.8-14.3-25.2c-6.2-15.1-12.6-37-19.3-65.6   c-21.9-92.5-34.5-178.6-37.8-258.2c-0.6-18.5-1.4-28.3-2.5-29.4c-1.1,0.6-8.1,23.8-21,69.8c-14,49.9-26.4,90-37,120.3   c-21.9,62.2-46.8,107.4-74.8,135.4c-26.4,25.8-52.7,38.1-79.1,37c-30.3-2.2-51.6-21.9-63.9-58.9c-7.3-25.8-7.6-57.2-0.8-94.2   c12.3-63.9,39-119.4,79.9-166.5c3.4-3.4,6.4-6.4,9.2-9.2c9-7.8,23.8-14.9,44.6-21c6.2-1.7,11.2-3.1,15.1-4.2   c12.9-3.9,24.4-3.9,34.5,0c10.1,3.9,18.8,11.2,26.1,21.9l10.1,15.1C2800.3,2373.3,2806.2,2360.2,2813,2349z M2737.3,2387.6   c-12.9,3.9-25,10.7-36.2,20.2c-14.6,14.6-29.2,40.1-43.7,76.5c-24.7,61.1-33.6,109.1-26.9,143.8c0.6,0.6,0.8,1.7,0.8,3.4   c3.4,9.5,8.4,15.7,15.1,18.5c1.7,0.6,3.4,1.1,5,1.7c8.4,1.7,20.7-4.8,37-19.3c26.9-25.2,53.3-77.6,79.1-157.3   c2.2-9,3.9-15.7,5-20.2c2.8-9.5,1.7-22.4-3.4-38.7c-5-16.3-10.1-26.1-15.1-29.4c-1.7-0.6-3.9-0.8-6.7-0.8   C2744.6,2386,2741.2,2386.5,2737.3,2387.6z"/>
	<path class="st0" d="M3112.3,3322c-8.4-0.6-15.7-2-21.9-4.2c-5.6-1.7-11.8-3.7-18.5-5.9c-17.4-6.2-36.5-19.9-57.2-41.2   c-16.8-18.5-30.6-41.2-41.2-68.1c-3.4-9-6.2-19.3-8.4-31.1c-5-25.8-6.7-46.5-5-62.2c3.9-28.6,17.9-55.5,42-80.7   c14.6-14,35.3-27.8,62.2-41.2c16.3-7.3,40.1-14.3,71.5-21c10.1-2.2,20-3.7,29.9-4.2c9.8-0.6,15.8-0.8,18.1-0.8l2.5-0.8l-3.4-21   c-2.2-14.6-4.5-28.9-6.7-42.9c-5.6-33.1-10.1-65.3-13.5-96.7c-1.1-7.8-2-14.8-2.5-21l-0.8-8.4l-4.2,5.9   c-3.4,4.5-8.4,10.4-15.1,17.7l-10.9,10.9l-8.4,3.4c-11.2,4.5-20.7,6.7-28.6,6.7c-14.6-0.6-28-5.6-40.4-15.1   c-11.2-9.5-21.3-20.5-30.3-32.8c-3.4-5.6-6.5-12-9.3-19.3c-3.4-7.3-6.2-13.6-8.4-18.9c-2.2-5.3-4.2-11.1-5.9-17.2   c-2.2-6.2-4.8-12.3-7.6-18.5l-4.2-9.2l-6.7-36.2c-8.4-45.4-12.6-77.9-12.6-97.6c0.6-9,0.3-17.4-0.8-25.2c-0.6-9-0.3-21.3,0.8-37   c1.1-16.8,2.2-30,3.4-39.5c1.1-9,2-17.1,2.5-24.4c1.7-17.9,4.2-33.1,7.6-45.4c1.1-5,2-10.9,2.5-17.7c2.2-17.9,6.2-32.8,11.8-44.6   c5.6-9.5,10.4-15.7,14.3-18.5c7.3-3.9,14.8-3.6,22.7,0.8c4.5,3.4,7.6,7.9,9.3,13.5c2.2,5.6,3.4,10.9,3.4,16   c0.5,20.2-0.6,32-3.4,35.3c-3.9,4.5-7.3,4.2-10.1-0.8c-0.6-1.1-1.1-2-1.7-2.5c-2.8-10.6-4.8-16.8-5.9-18.5l-4.2,11.8   c-1.1,5-1.7,9.5-1.7,13.5c-1.1,5.6-2.5,12.3-4.2,20.2c-2.8,14-5,29.2-6.7,45.4c0,5-0.6,11.2-1.7,18.5c-3.9,29.2-5,53.5-3.4,73.2   c0.6,7.9,0.8,16,0.8,24.4c0,25.8,3.9,56.1,11.8,90.8c2.8,12.9,4.5,22.2,5,27.8c1.7,6.2,3.4,11.5,5,16c2.8,5.6,5.2,11.5,7.2,17.7   c2,6.2,4.1,11.8,6.3,16.8c2.2,5,4.5,10.7,6.7,16.8c4.5,10.1,10.9,19.6,19.3,28.6c8.4,8.4,15.1,14,20.2,16.8   c7.3,2.2,14.3,2.5,21,0.8c5-2.8,10.4-6.7,16-11.8c9.5-9.5,17.9-21,25.2-34.5c6.2-11.8,9-20.2,8.4-25.2c0-1.1-0.3-3.6-0.8-7.6   c-1.1-16.3-1.4-36.7-0.8-61.4c0.6-8.4,0.8-18.8,0.8-31.1c1.1-28.6,3.9-57.2,8.4-85.8c3.4-17.4,10.1-39,20.2-64.8   c4.5-10.1,11.2-19.1,20.2-26.9c6.7-3.9,13.2-5.6,19.3-5c12.3,3.4,19.1,15.1,20.2,35.3c0,9.5-0.6,17.7-1.7,24.4   c-1.1,4.5-2,9.3-2.5,14.3c0,6.2-1.1,13.2-3.4,21c-2.2,8.4-3.9,16-5,22.7c-1.1,7.3-2.8,16-5,26.1c-2.2,10.1-4.2,20.2-5.9,30.3   c-2.8,15.1-7,32.2-12.6,51.3c-1.7,7.3-2.5,14.6-2.5,21.9c0,7.9,0.6,17.1,1.7,27.8c1.1,10.7,1.7,20.8,1.7,30.3   c0.6,9.5,1.7,20.5,3.4,32.8c1.1,12.3,2.2,22.2,3.4,29.4c2.2,22.4,6.7,57.5,13.5,105.1c9,58.3,14.6,109.9,16.8,154.7   c0.6,10.6,1.1,20.3,1.7,29c0.6,8.7,0.6,17.8,0,27.3c-0.6,9.5-0.8,17.9-0.8,25.2c-1.1,24.1-4.5,49.1-10.1,74.8   c-3.4,12.3-7.9,25.8-13.5,40.4c-9.5,23.5-26.1,43.2-49.6,58.9l-8.4,5.9l-20.2,3.4C3129.2,3320.8,3119.1,3322,3112.3,3322z    M3159.4,3262.2c11.2-9.5,20.2-24.4,26.9-44.6c8.4-26.9,12.6-52.4,12.6-76.5c0-4.5,0.3-13.5,0.8-26.9c0-14-0.3-24.1-0.8-30.3   c-0.6-6.7-1.1-15.1-1.7-25.2l-9.2-85.8c-1.1,0.6-3.4,1.4-6.7,2.5c-3.9,1.7-8.1,3.1-12.6,4.2c-9,2.8-19.9,7-32.8,12.6   c-6.7,3.4-12.9,6.2-18.5,8.4c-25.2,9.5-49.1,22.1-71.5,37.8c-0.6,0.6-1.1,0.8-1.7,0.8c-16.8,12.9-29.4,27.2-37.8,42.9   c-5,9.5-7.9,20.2-8.4,32c-0.6,7.8,0.3,17.1,2.5,27.8c4.5,19.6,9.5,35.6,15.1,47.9c10.6,21.3,25.5,40.9,44.6,58.9   c1.1,0.6,1.7,1.1,1.7,1.7c9.5,8.4,19.1,14.3,28.6,17.7c5,1.7,9.5,3.1,13.5,4.2c7.3,2.2,16.5,2.8,27.8,1.7c9.5-1.7,16-3.4,19.3-5   C3154.4,3266.7,3157.2,3264.5,3159.4,3262.2z"/>
	<path class="st0" d="M3703.6,2315.3c9.5,16.3,5.3,60.3-12.6,132c-3.4,14-7.6,30-12.6,47.9c-25.2,89.7-43.5,142.4-54.7,158.1   c-7.3,10.7-16.3,19.6-26.9,26.9c-30.3,18.5-63.4,13.7-99.2-14.3c-13.5-10.1-23.8-19.9-31.1-29.4c-21.3-29.1-34.8-51.8-40.4-68.1   l-5-15.1l-21.9,62.2c-1.1,2.8-2.2,5.6-3.4,8.4c-12.9,35.9-22.7,56.6-29.4,62.2c-10.1,7.3-21.9,8.7-35.3,4.2   c-19.1-7.8-31.1-22.7-36.2-44.6c-1.1-6.2-2.5-12.6-4.2-19.3c-7.3-42-7.9-104.6-1.7-187.5c0.5-1.7,0.8-3.6,0.8-5.9   c4.5-16.8,12.9-22.1,25.2-16c3.4,1.1,6.2,2.8,8.4,5c4.5,4.5,7,19.9,7.6,46.3c2.2,112.7,6.4,169.3,12.6,169.9   c2.8-0.5,9.5-17.1,20.2-49.6c10.6-33.1,21.3-63.3,32-90.8c7.3-17.4,13.2-29.1,17.7-35.3c5-7.8,12.9-9,23.5-3.4   c1.7,0.6,3.4,1.4,5,2.5c6.7,5.6,12,22.2,16,49.6c3.9,29.2,13.5,56.3,28.6,81.6c33.6,52.1,64.8,58.6,93.3,19.3   c1.7-2.2,5.3-9.8,10.9-22.7c31.4-74.6,52.4-130.6,63.1-168.2c1.7-5,8.4-24.7,20.2-58.9c7.3-22.4,12.6-37,16-43.7   c2.8-5.6,5.3-8.1,7.6-7.6C3699.4,2311.7,3701.3,2313.1,3703.6,2315.3z"/>
	<path class="st0" d="M3784.3,2696.3c-18.5-14-32.5-33.6-42-58.9c-15.7-42-17.1-82.1-4.2-120.3c7.3-21.9,17.9-35.9,32-42   c15.1-6.2,26.3-3.9,33.6,6.7c4.5,7.9,4.5,16.3,0,25.2c-5.6,11.8-10.9,15.4-16,10.9c-1.1-1.1-2-2.2-2.5-3.4   c-1.7-1.7-4.2-0.8-7.6,2.5c-8.4,10.7-10.1,33.9-5,69.8c2.2,10.7,4.8,20.2,7.6,28.6c9.5,28.6,19.9,44.3,31.1,47.1l1.7,0.8   c16.8,0,34.8-10.1,53.8-30.3c7.8-9,13.5-17.4,16.8-25.2c6.7-18.5,6.2-41.2-1.7-68.1c-3.4-11.8-7.6-19.3-12.6-22.7   c-3.9-2.2-14.3-3.9-31.1-5c-16.3-1.7-25-3.6-26.1-5.9c-0.6-4.5,10.4-10.9,32.8-19.3c9.5-3.4,16.5-5,21-5   c18.5-0.6,34.8,8.7,48.8,27.8c2.8,3.9,5.3,8.1,7.6,12.6c16.8,40.4,17.9,77.4,3.4,111c-9.5,21.3-29.7,40.1-60.6,56.3   c-19.1,10.1-35.9,15.1-50.5,15.1C3801.7,2704.7,3791.6,2701.9,3784.3,2696.3z"/>
	<path class="st0" d="M3995.4,1740.9c3.4,1.7,6.4,5,9.3,10.1c2.2,4.5,2.2,12.9,0,25.2c-3.4,18.5-6.5,43.5-9.3,74.9   c-10.1,113.8-11.5,223.4-4.2,328.8c1.7,25.8,3.4,49.6,5,71.5c1.7,21.9,3.6,41.8,5.9,59.7c1.7,14.6,4.5,40.7,8.4,78.2   c4.5-3.9,21.9-14.9,52.1-32.8c8.4-5,19.6-10.6,33.6-16.8c10.1-4.5,18.5-8.4,25.2-11.8c15.7-7.8,33.4-14.9,53-21   c6.2-2.2,14-5.3,23.5-9.3c14-5.6,25.8-9.5,35.3-11.8c3.4-0.6,6.7-1.4,10.1-2.5c3.9-1.7,8.7-3.1,14.3-4.2c6.2-0.5,13.7-1.1,22.7-1.7   c9,0.6,15.7,1.4,20.2,2.5c2.2,0.6,5.3,2.2,9.3,5c1.1,1.1,2.2,2.2,3.4,3.4c1.7,1.1,3.1,2.5,4.2,4.2c1.7,5,2,10.9,0.8,17.7   c-0.6,2.8-1.4,5.3-2.5,7.6c-2.2,2.2-5.3,3.9-9.2,5c-2.8,0.6-5.6,0.3-8.4-0.8c-2.8-1.1-4.8-2.5-5.9-4.2h0.8h-0.8   c-0.6-0.5-1.1-1.4-1.7-2.5c0.5,0.6,1.1,1.4,1.7,2.5c-0.6,0-1.1-0.3-1.7-0.8l-1.7-0.8c0-0.5-0.3-0.8-0.8-0.8h0.8h-0.8l-0.8-1.7   l0.8,1.7l-0.8-0.8c-0.6,0-1.4,0-2.5,0c-2.8,0.6-6.6,1-11.4,1.3c-4.8,0.3-10.5,1.6-17.2,3.8c-3.4,1.1-6.7,2-10.1,2.5   c-7.3,2.2-16.3,5.3-26.9,9.3c-6.7,3.4-16.3,7.3-28.6,11.8c-14.6,6.2-29.2,12.9-43.7,20.2c-11.8,6.7-24.1,13.2-37,19.3   c-5,2.8-11.2,6.2-18.5,10.1c-7.9,5-14.9,9.5-21,13.5c-7.3,4.5-13.2,8.1-17.7,10.9c-3.4,2.2-5.6,3.9-6.7,5c-2.2,1.7-5.3,4.5-9.2,8.4   c-5,4.5-8.4,8.1-10.1,10.9c0.6,1.1,1.7,2.5,3.4,4.2c2.8,3.9,8.7,9.5,17.7,16.8c9.5,8.4,20.5,16.8,32.8,25.2   c9.5,7.3,25.2,20.2,47.1,38.7c34.8,29.2,64.2,57.5,88.3,84.9c19.1,21.9,37.8,47.1,56.3,75.7c1.1,1.7,2,3.7,2.5,5.9   c0.5,2.8,0.3,5.6-0.8,8.4c-0.6,2.2-2.5,4.2-5.9,5.9c-5,2.2-10.1,1.7-15.1-1.7l-1.7-1.7l-0.8-0.8c-0.6-0.6-1.7-1.7-3.4-3.4   c-2.2-2.2-5.3-5.3-9.3-9.2c-7.9-8.4-14.2-15-18.9-19.8c-4.8-4.8-10.2-9.9-16.4-15.6c-6.2-6.2-15.4-14.9-27.8-26.1l-1.7-0.8   l-0.8-0.8l-0.8-0.8h-0.8l-0.8-0.8l-0.8-0.8l-0.8-0.8l-0.8-0.8l-0.8-0.8l-0.8-0.8l-0.8-0.8l-0.8-0.8l-0.8-0.8l-0.8-0.8l-0.8-0.8   h-0.8l-0.8-0.8l-0.8-0.8l-0.8-0.8l-0.8-0.8l-0.8-0.8l-0.8-0.8l-0.8-0.8h-0.8l-0.8-0.8v-0.8l-0.8-0.8l-0.8-0.8h-0.8l-0.8-0.8   l-0.8-0.8l-0.8-0.8l-0.8-0.8l-0.8-0.8h-0.8v-0.8h-0.8l-0.8-0.8c-7.3-6.7-18.2-16-32.8-27.8c-14.6-11.8-26.6-21.9-36.2-30.3   c-9-7.3-17.4-13.7-25.2-19.3c-9.5-6.7-18.2-13.2-26.1-19.3c4.5,37,6.7,71.8,6.7,104.3c0,6.2-0.3,12.1-0.8,17.7   c-1.1,26.9-7.9,47.4-20.2,61.4c-2.8,2.8-5.3,5.3-7.6,7.6c-5.6,5.6-10.1,8.7-13.5,9.3c-9,0.6-16-20.5-21-63.1   c6.7-2.8,11.5-6.2,14.3-10.1c6.2-12.9,5-55.5-3.4-127.8c-2.2-19.1-5.2-48.4-8.8-87.9c-3.7-39.5-7.2-75-10.5-106.4   c-0.6-5.6-1.1-11.5-1.7-17.7c-14-147.4-16.5-277.8-7.6-391.1c2.2-31.4,3.1-47.6,2.5-48.8c-0.6,0-2.2,1.4-5,4.2   c-2.8,2.8-5.9,5.9-9.3,9.3c-5.6,6.2-11.5,12.3-17.7,18.5c-25.8,24.1-42,30.6-48.8,19.3c-5-8.4,0.8-19.1,17.7-32   c2.2-1.7,5.3-4.2,9.3-7.6c23-21.3,40.1-41.8,51.3-61.4c4.5-7.3,10.1-18.8,16.8-34.5c0-0.6,0.3-1.1,0.8-1.7   c8.4-17.9,16-27.2,22.7-27.8C3990.6,1739.8,3992.6,1740.4,3995.4,1740.9z"/>
</g>
</svg>